<svg width="58" height="54" viewBox="0 0 58 54" fill="none" xmlns="http://www.w3.org/2000/svg">
<g id="Group 14234">
<g id="Mask group">
<mask id="mask0_942_8" style="mask-type:alpha" maskUnits="userSpaceOnUse" x="2" y="0" width="54" height="37">
<path id="Rectangle 152" d="M2.2124 0.513306L29.3739 14.1516L55.7873 0.513306V36.4793H2.2124V0.513306Z" fill="#D9D9D9"/>
</mask>
<g mask="url(#mask0_942_8)">
<path id="Vector" d="M52.8797 -10.6353L29.559 -22.3429C29.4226 -22.4114 29.2722 -22.4472 29.1196 -22.4474C28.967 -22.4476 28.8165 -22.4122 28.68 -22.344L5.19084 -10.6333C4.30984 -10.1982 3.56865 -9.52455 3.05161 -8.68898C2.53457 -7.85341 2.26243 -6.8895 2.26615 -5.90691V22.6002C2.26616 22.7826 2.31695 22.9614 2.41283 23.1166C2.50872 23.2717 2.64591 23.3971 2.80904 23.4787L9.25413 26.7032C9.28682 26.7167 9.32031 26.7283 9.35426 26.7381C9.43688 26.7747 9.52598 26.7944 9.61632 26.796C9.64268 26.7982 9.66788 26.8067 9.69436 26.8067L9.70771 26.8035C9.84188 26.8002 9.97391 26.769 10.0953 26.7118C10.1074 26.7064 10.1207 26.709 10.1326 26.703L16.5777 23.4785C16.7408 23.3969 16.878 23.2715 16.9739 23.1163C17.0697 22.9612 17.1206 22.7824 17.1206 22.6V17.7407L21.6014 19.9827V32.2725C21.6014 32.4549 21.6522 32.6337 21.7481 32.7888C21.844 32.944 21.9812 33.0694 22.1443 33.151L28.5894 36.3755C28.7258 36.4436 28.8762 36.479 29.0287 36.479C29.1811 36.479 29.3315 36.4436 29.4679 36.3755L35.913 33.151C36.0761 33.0693 36.2133 32.9439 36.3092 32.7888C36.4051 32.6336 36.4559 32.4549 36.4559 32.2725V19.9828L40.9367 17.7408V22.6002C40.9367 22.7826 40.9875 22.9614 41.0834 23.1166C41.1793 23.2717 41.3165 23.3971 41.4796 23.4787L47.9247 26.7032C47.9368 26.7092 47.9499 26.7066 47.962 26.7121C48.0835 26.7692 48.2155 26.8004 48.3496 26.8037L48.363 26.8069C48.3895 26.8069 48.4145 26.7983 48.4409 26.7962C48.4941 26.7933 48.5469 26.7861 48.5989 26.7746C48.667 26.7509 48.7351 26.7271 48.8032 26.7033L55.2483 23.4788C55.4114 23.3972 55.5486 23.2718 55.6445 23.1167C55.7403 22.9615 55.7911 22.7827 55.7912 22.6003V-5.91554C55.7946 -6.89554 55.5237 -7.85694 55.0092 -8.69102C54.4947 -9.5251 53.757 -10.1986 52.8797 -10.6353ZM15.1562 17.2264V21.9931L10.6754 24.235V14.516L15.2573 16.8086C15.1926 16.9385 15.1581 17.0813 15.1562 17.2264ZM28.5375 34.1532L23.5656 31.6655V19.3757C23.5656 19.1933 23.5148 19.0145 23.4189 18.8593C23.323 18.7042 23.1858 18.5787 23.0227 18.4971L10.1325 12.0481C9.98276 11.9733 9.81638 11.938 9.64916 11.9456C9.48195 11.9531 9.31944 12.0033 9.17705 12.0913C9.03466 12.1793 8.91712 12.3022 8.83558 12.4484C8.75404 12.5946 8.7112 12.7592 8.71113 12.9266V24.2352L4.23029 21.9929V3.7688L28.5375 15.9297V34.1532ZM28.5375 7.52318V13.7332L4.23029 1.57205V-5.90691C4.22793 -6.52412 4.39881 -7.12961 4.72348 -7.65453C5.04816 -8.17945 5.51361 -8.60273 6.06692 -8.87625L29.1168 -20.3672L51.9984 -8.88017H51.9988C52.4881 -8.63322 52.9082 -8.26844 53.2214 -7.81868L31.184 3.23892C30.3867 3.63448 29.7161 4.24552 29.2484 5.00275C28.7806 5.75999 28.5344 6.63313 28.5375 7.52318ZM47.3817 24.235L42.9009 21.9931V16.7581L47.3817 14.5161V24.235ZM53.8268 21.993L49.346 24.2353V12.9267C49.3459 12.7593 49.3031 12.5947 49.2216 12.4485C49.1401 12.3023 49.0225 12.1793 48.8801 12.0913C48.7377 12.0033 48.5752 11.9532 48.408 11.9456C48.2407 11.9381 48.0743 11.9734 47.9246 12.0482L35.0344 18.4971C34.8713 18.5787 34.7341 18.7041 34.6383 18.8593C34.5424 19.0144 34.4916 19.1932 34.4915 19.3756V31.6654L30.095 34.1531V15.9295L53.8268 3.76868V21.993ZM53.8268 1.57205L30.095 13.7332V8.21373C30.0924 7.50611 30.2882 6.81192 30.6601 6.20993C31.032 5.60793 31.5653 5.12224 32.1993 4.80795L53.661 -6.36439C53.7694 -6.03374 53.8253 -5.68816 53.8268 -5.3402V1.57205Z" fill="#088395"/>
</g>
</g>
<g id="MELTA">
<path d="M0 53.5146V40.0274H0.017983L6.95941 49.8641L6.13219 49.6843L13.0377 40.0274H13.0736V53.5146H11.1674V44.3613L11.2933 45.3504L6.47387 52.1659H6.4379L1.52855 45.3504L1.85225 44.4512V53.5146H0Z" fill="#141C1D"/>
<path d="M16.7361 40.459H25.314V42.3113H18.6603V46.0337H24.5767V47.886H18.6603V51.6624H25.5657V53.5146H16.7361V40.459Z" fill="#141C1D"/>
<path d="M28.5199 40.459H30.444V51.6624H36.9719V53.5146H28.5199V40.459Z" fill="#141C1D"/>
<path d="M37.3485 40.459H46.0523V42.3113H42.6175V53.5146H40.6934V42.3113H37.3485V40.459Z" fill="#141C1D"/>
<path d="M46.419 53.5146L52.1555 39.9375H52.2634L58 53.5146H55.8061L51.634 42.9407L53.0187 42.0235L48.3072 53.5146H46.419ZM49.9077 48.6233H54.5473L55.2126 50.2777H49.3322L49.9077 48.6233Z" fill="#141C1D"/>
</g>
</g>
</svg>
