<svg width="102" height="22" viewBox="0 0 102 22" fill="none" xmlns="http://www.w3.org/2000/svg">
<path d="M5.049 16.18C4.323 16.18 3.702 16.006 3.186 15.658C2.676 15.304 2.259 14.818 1.935 14.2C1.617 13.576 1.383 12.853 1.233 12.031C1.089 11.209 1.017 10.33 1.017 9.394C1.017 8.458 1.089 7.579 1.233 6.757C1.383 5.929 1.617 5.203 1.935 4.579C2.259 3.949 2.676 3.457 3.186 3.103C3.702 2.743 4.323 2.563 5.049 2.563C5.775 2.563 6.393 2.743 6.903 3.103C7.419 3.457 7.836 3.949 8.154 4.579C8.472 5.203 8.706 5.929 8.856 6.757C9.006 7.579 9.081 8.458 9.081 9.394C9.081 10.33 9.006 11.209 8.856 12.031C8.706 12.853 8.472 13.576 8.154 14.2C7.836 14.818 7.419 15.304 6.903 15.658C6.393 16.006 5.775 16.18 5.049 16.18ZM5.049 14.83C5.613 14.83 6.075 14.623 6.435 14.209C6.801 13.795 7.074 13.183 7.254 12.373C7.434 11.563 7.524 10.57 7.524 9.394C7.524 8.212 7.434 7.216 7.254 6.406C7.074 5.596 6.801 4.984 6.435 4.57C6.075 4.15 5.613 3.94 5.049 3.94C4.491 3.94 4.026 4.15 3.654 4.57C3.288 4.984 3.015 5.596 2.835 6.406C2.655 7.216 2.565 8.212 2.565 9.394C2.565 10.576 2.655 11.572 2.835 12.382C3.015 13.186 3.288 13.795 3.654 14.209C4.026 14.623 4.491 14.83 5.049 14.83ZM11.3645 16V14.677C11.4125 14.407 11.5535 14.098 11.7875 13.75C12.0215 13.396 12.3095 13.027 12.6515 12.643C12.9935 12.259 13.3535 11.881 13.7315 11.509C14.1155 11.131 14.4755 10.783 14.8115 10.465C15.2315 10.069 15.6425 9.658 16.0445 9.232C16.4525 8.8 16.7915 8.344 17.0615 7.864C17.3315 7.384 17.4665 6.88 17.4665 6.352C17.4665 5.566 17.2835 4.966 16.9175 4.552C16.5515 4.138 16.0025 3.931 15.2705 3.931C14.6825 3.931 14.2115 4.054 13.8575 4.3C13.5035 4.546 13.2485 4.891 13.0925 5.335C12.9365 5.779 12.8585 6.298 12.8585 6.892H11.3195C11.3195 6.034 11.4635 5.281 11.7515 4.633C12.0395 3.979 12.4775 3.472 13.0655 3.112C13.6535 2.746 14.3945 2.563 15.2885 2.563C16.1105 2.563 16.7975 2.725 17.3495 3.049C17.9015 3.367 18.3155 3.811 18.5915 4.381C18.8735 4.951 19.0145 5.611 19.0145 6.361C19.0145 6.853 18.9215 7.33 18.7355 7.792C18.5555 8.248 18.3185 8.683 18.0245 9.097C17.7305 9.505 17.4125 9.886 17.0705 10.24C16.7345 10.588 16.4135 10.903 16.1075 11.185C15.6155 11.635 15.1505 12.073 14.7125 12.499C14.2805 12.925 13.9175 13.318 13.6235 13.678C13.3355 14.038 13.1615 14.347 13.1015 14.605H19.1045V16H11.3645Z" fill="#A3AAAB"/>
<rect x="36" y="8.5" width="66" height="5" fill="#A3AAAB" fill-opacity="0.2"/>
</svg>
