<svg width="102" height="22" viewBox="0 0 102 22" fill="none" xmlns="http://www.w3.org/2000/svg">
<path d="M5.049 16.18C4.323 16.18 3.702 16.006 3.186 15.658C2.676 15.304 2.259 14.818 1.935 14.2C1.617 13.576 1.383 12.853 1.233 12.031C1.089 11.209 1.017 10.33 1.017 9.394C1.017 8.458 1.089 7.579 1.233 6.757C1.383 5.929 1.617 5.203 1.935 4.579C2.259 3.949 2.676 3.457 3.186 3.103C3.702 2.743 4.323 2.563 5.049 2.563C5.775 2.563 6.393 2.743 6.903 3.103C7.419 3.457 7.836 3.949 8.154 4.579C8.472 5.203 8.706 5.929 8.856 6.757C9.006 7.579 9.081 8.458 9.081 9.394C9.081 10.33 9.006 11.209 8.856 12.031C8.706 12.853 8.472 13.576 8.154 14.2C7.836 14.818 7.419 15.304 6.903 15.658C6.393 16.006 5.775 16.18 5.049 16.18ZM5.049 14.83C5.613 14.83 6.075 14.623 6.435 14.209C6.801 13.795 7.074 13.183 7.254 12.373C7.434 11.563 7.524 10.57 7.524 9.394C7.524 8.212 7.434 7.216 7.254 6.406C7.074 5.596 6.801 4.984 6.435 4.57C6.075 4.15 5.613 3.94 5.049 3.94C4.491 3.94 4.026 4.15 3.654 4.57C3.288 4.984 3.015 5.596 2.835 6.406C2.655 7.216 2.565 8.212 2.565 9.394C2.565 10.576 2.655 11.572 2.835 12.382C3.015 13.186 3.288 13.795 3.654 14.209C4.026 14.623 4.491 14.83 5.049 14.83ZM16.9445 9.007C17.4725 9.025 17.8955 9.175 18.2135 9.457C18.5375 9.739 18.7715 10.111 18.9155 10.573C19.0595 11.029 19.1315 11.533 19.1315 12.085C19.1315 12.859 18.9935 13.555 18.7175 14.173C18.4475 14.791 18.0305 15.28 17.4665 15.64C16.9085 16 16.1975 16.18 15.3335 16.18C14.6195 16.18 14.0135 16.084 13.5155 15.892C13.0175 15.7 12.6125 15.421 12.3005 15.055C11.9945 14.689 11.7695 14.245 11.6255 13.723C11.4815 13.201 11.4095 12.613 11.4095 11.959C11.4095 11.953 11.4095 11.947 11.4095 11.941C11.4095 11.935 11.4095 11.929 11.4095 11.923H12.9485C12.9485 11.929 12.9485 11.935 12.9485 11.941C12.9485 11.947 12.9485 11.953 12.9485 11.959C12.9485 12.709 13.0445 13.294 13.2365 13.714C13.4285 14.128 13.7015 14.419 14.0555 14.587C14.4155 14.749 14.8475 14.83 15.3515 14.83C16.0415 14.83 16.5845 14.602 16.9805 14.146C17.3825 13.69 17.5835 12.991 17.5835 12.049C17.5835 11.737 17.5505 11.44 17.4845 11.158C17.4245 10.87 17.3105 10.618 17.1425 10.402C16.9805 10.18 16.7495 10.006 16.4495 9.88C16.1495 9.748 15.7625 9.682 15.2885 9.682H14.7935V8.431H15.2885C15.7505 8.431 16.1285 8.368 16.4225 8.242C16.7225 8.11 16.9565 7.939 17.1245 7.729C17.2925 7.513 17.4095 7.273 17.4755 7.009C17.5475 6.739 17.5835 6.466 17.5835 6.19C17.5835 5.392 17.3855 4.816 16.9895 4.462C16.5935 4.108 16.0565 3.931 15.3785 3.931C14.6405 3.931 14.0495 4.126 13.6055 4.516C13.1675 4.906 12.9485 5.608 12.9485 6.622H11.4095C11.4095 6.022 11.4875 5.473 11.6435 4.975C11.8055 4.477 12.0485 4.048 12.3725 3.688C12.6965 3.328 13.1045 3.052 13.5965 2.86C14.0945 2.662 14.6795 2.563 15.3515 2.563C16.2095 2.563 16.9175 2.719 17.4755 3.031C18.0335 3.343 18.4475 3.769 18.7175 4.309C18.9935 4.843 19.1315 5.446 19.1315 6.118C19.1315 6.61 19.0595 7.072 18.9155 7.504C18.7715 7.936 18.5375 8.29 18.2135 8.566C17.8955 8.836 17.4725 8.983 16.9445 9.007Z" fill="#A3AAAB"/>
<rect x="36" y="8.5" width="66" height="5" fill="#A3AAAB" fill-opacity="0.2"/>
</svg>
