<svg width="30" height="411" viewBox="0 0 30 411" fill="none" xmlns="http://www.w3.org/2000/svg">
<path d="M8.4 409.128L7.624 408.512L13.016 408.512L12.584 408.952L12.584 404.176L13.784 404.176L13.784 408.952L13.328 408.512L19 408.512L19 409.872L7.2 409.872L7.2 403.464L8.4 403.464L8.4 409.128ZM19.16 398.05C19.16 398.738 19.024 399.37 18.752 399.946C18.48 400.517 18.0853 401.015 17.568 401.442C17.0453 401.863 16.408 402.191 15.656 402.426C14.904 402.655 14.048 402.77 13.088 402.77C12.128 402.77 11.2747 402.655 10.528 402.426C9.776 402.191 9.144 401.863 8.632 401.442C8.11467 401.015 7.72267 400.514 7.456 399.938C7.18933 399.362 7.056 398.733 7.056 398.05C7.056 397.362 7.18933 396.73 7.456 396.154C7.72267 395.578 8.11467 395.079 8.632 394.658C9.144 394.231 9.776 393.903 10.528 393.674C11.2747 393.439 12.128 393.322 13.088 393.322C14.048 393.322 14.904 393.439 15.656 393.674C16.408 393.903 17.0453 394.231 17.568 394.658C18.0853 395.079 18.48 395.578 18.752 396.154C19.024 396.73 19.16 397.362 19.16 398.05ZM17.928 398.05C17.928 397.394 17.7493 396.815 17.392 396.314C17.0347 395.813 16.4987 395.421 15.784 395.138C15.064 394.855 14.1653 394.714 13.088 394.714C12.0053 394.714 11.1093 394.858 10.4 395.146C9.69067 395.429 9.16267 395.821 8.816 396.322C8.46933 396.823 8.296 397.399 8.296 398.05C8.296 398.695 8.46933 399.271 8.816 399.778C9.16267 400.279 9.69067 400.674 10.4 400.962C11.1093 401.245 12.0053 401.386 13.088 401.386C14.1707 401.386 15.072 401.245 15.792 400.962C16.5067 400.674 17.0427 400.279 17.4 399.778C17.752 399.271 17.928 398.695 17.928 398.05ZM19 391.388L7.2 391.388L7.2 390.02L18.576 390.02L17.8 390.636L17.8 385.364L19 385.364L19 391.388ZM19 383.544L7.2 383.544L7.2 382.176L18.576 382.176L17.8 382.792L17.8 377.52L19 377.52L19 383.544ZM19.16 372.253C19.16 372.941 19.024 373.573 18.752 374.149C18.48 374.72 18.0853 375.219 17.568 375.645C17.0453 376.067 16.408 376.395 15.656 376.629C14.904 376.859 14.048 376.973 13.088 376.973C12.128 376.973 11.2747 376.859 10.528 376.629C9.776 376.395 9.144 376.067 8.632 375.645C8.11467 375.219 7.72266 374.717 7.456 374.141C7.18933 373.565 7.056 372.936 7.056 372.253C7.056 371.565 7.18933 370.933 7.456 370.357C7.72266 369.781 8.11466 369.283 8.632 368.861C9.144 368.435 9.776 368.107 10.528 367.877C11.2747 367.643 12.128 367.525 13.088 367.525C14.048 367.525 14.904 367.643 15.656 367.877C16.408 368.107 17.0453 368.435 17.568 368.861C18.0853 369.283 18.48 369.781 18.752 370.357C19.024 370.933 19.16 371.565 19.16 372.253ZM17.928 372.253C17.928 371.597 17.7493 371.019 17.392 370.517C17.0347 370.016 16.4987 369.624 15.784 369.341C15.064 369.059 14.1653 368.917 13.088 368.917C12.0053 368.917 11.1093 369.061 10.4 369.349C9.69066 369.632 9.16266 370.024 8.816 370.525C8.46933 371.027 8.296 371.603 8.296 372.253C8.296 372.899 8.46933 373.475 8.816 373.981C9.16266 374.483 9.69066 374.877 10.4 375.165C11.1093 375.448 12.0053 375.589 13.088 375.589C14.1707 375.589 15.072 375.448 15.792 375.165C16.5067 374.877 17.0427 374.483 17.4 373.981C17.752 373.475 17.928 372.899 17.928 372.253ZM19 364.729L7.2 366.601L7.2 365.193L18.416 363.601L18.408 363.809L7.2 361.289L7.2 359.481L18.408 356.969L18.416 357.177L7.2 355.585L7.2 354.169L19 356.057L19 358.161L8.352 360.465L8.352 360.305L19 362.617L19 364.729ZM14.648 340.252C16.1787 340.252 17.3147 340.61 18.056 341.324C18.792 342.039 19.16 343.034 19.16 344.308C19.16 345.578 18.792 346.57 18.056 347.284C17.3147 347.999 16.1787 348.356 14.648 348.356C14.4133 348.356 14.1653 348.356 13.904 348.356C13.6373 348.356 13.3573 348.356 13.064 348.356L7.2 348.356L7.2 346.988L13.184 346.988C13.4613 346.988 13.72 346.988 13.96 346.988C14.2 346.988 14.4213 346.988 14.624 346.988C15.808 346.988 16.656 346.762 17.168 346.308C17.6747 345.855 17.928 345.188 17.928 344.308C17.928 343.423 17.6747 342.754 17.168 342.3C16.656 341.842 15.808 341.612 14.624 341.612L7.2 341.612L7.2 340.252L14.648 340.252ZM19.16 334.429C19.16 335.245 19.032 335.944 18.776 336.525C18.5147 337.101 18.1227 337.544 17.6 337.853C17.0773 338.162 16.4267 338.317 15.648 338.317C15.5413 338.317 15.4507 338.317 15.376 338.317C15.3013 338.317 15.2107 338.317 15.104 338.317L15.104 336.949C15.2053 336.949 15.2907 336.949 15.36 336.949C15.4293 336.949 15.5173 336.949 15.624 336.949C16.44 336.949 17.0293 336.736 17.392 336.309C17.7493 335.882 17.928 335.261 17.928 334.445C17.928 333.602 17.784 332.965 17.496 332.533C17.208 332.101 16.7413 331.885 16.096 331.885C15.6427 331.885 15.2667 332.01 14.968 332.261C14.664 332.506 14.408 332.848 14.2 333.285C13.9867 333.722 13.792 334.232 13.616 334.813C13.4133 335.469 13.1573 336.056 12.848 336.573C12.5387 337.085 12.1573 337.49 11.704 337.789C11.2453 338.082 10.688 338.229 10.032 338.229C9.392 338.229 8.85066 338.074 8.408 337.765C7.96533 337.45 7.62933 337.013 7.4 336.453C7.17066 335.893 7.056 335.242 7.056 334.501C7.056 333.717 7.17866 333.037 7.424 332.461C7.664 331.88 8.032 331.432 8.528 331.117C9.01866 330.797 9.63733 330.637 10.384 330.637C10.5013 330.637 10.6027 330.637 10.688 330.637C10.768 330.637 10.8667 330.637 10.984 330.637L10.984 332.005C10.8827 332.005 10.792 332.005 10.712 332.005C10.632 332.005 10.5413 332.005 10.44 332.005C9.66133 332.005 9.10933 332.216 8.784 332.637C8.45333 333.058 8.288 333.672 8.288 334.477C8.288 335.25 8.424 335.848 8.696 336.269C8.968 336.69 9.41333 336.901 10.032 336.901C10.496 336.901 10.88 336.773 11.184 336.517C11.4827 336.256 11.7387 335.901 11.952 335.453C12.16 335.005 12.36 334.493 12.552 333.917C12.7813 333.218 13.0427 332.618 13.336 332.117C13.624 331.61 13.984 331.224 14.416 330.957C14.848 330.685 15.392 330.549 16.048 330.549C16.704 330.549 17.264 330.706 17.728 331.021C18.192 331.33 18.5467 331.776 18.792 332.357C19.0373 332.933 19.16 333.624 19.16 334.429Z" fill="#141C1D"/>
<rect x="14" y="313" width="193" height="2" transform="rotate(-90 14 313)" fill="#141C1D"/>
<path d="M5 86L5 98C5 100.209 6.79086 102 9 102L21 102C23.2091 102 25 100.209 25 98L25 93.5L19 93.5L19 97L16 97L16 93.5L14 93.5C11.7909 93.5 10 91.7091 10 89.5L10 87L13 87L13 89.5C13 90.0523 13.4477 90.5 14 90.5L16 90.5L16 87L19 87L19 90.5L25 90.5L25 86C25 83.7909 23.2091 82 21 82L9 82C6.79086 82 5 83.7909 5 86Z" fill="#088395"/>
<path fill-rule="evenodd" clip-rule="evenodd" d="M5 57C5 59.7614 7.23858 62 10 62L20 62C22.7614 62 25 59.7614 25 57L25 47C25 44.2386 22.7614 42 20 42L10 42C7.23858 42 5 44.2386 5 47L5 57ZM10 46C10 45.4477 9.55228 45 9 45C8.44771 45 8 45.4477 8 46C8 46.5523 8.44771 47 9 47C9.55228 47 10 46.5523 10 46ZM15 47C17.7614 47 20 49.2386 20 52C20 54.7614 17.7614 57 15 57C12.2386 57 10 54.7614 10 52C10 49.2386 12.2386 47 15 47ZM18 52C18 50.3431 16.6569 49 15 49C13.3431 49 12 50.3431 12 52C12 53.6569 13.3431 55 15 55C16.6569 55 18 53.6569 18 52Z" fill="#088395"/>
<path d="M7 8.71393C7 10.8178 8.79086 12.5233 11 12.5233C11.3338 12.5233 11.6581 12.4843 11.9681 12.411C11.9681 14.4339 11.5591 17.4809 9.00961 20.0256C8.67059 20.3639 8.89726 20.9879 9.37567 20.9644C17.0627 20.5873 19.3049 17.2952 19.4444 15.5999C20.5257 16.6946 21.3791 18.2849 21.7622 19.8851C21.8633 20.3074 22.3256 20.4118 22.4599 19.9988C22.8323 18.8538 22.9758 17.2148 23 16.3326C23 10.0918 17.7471 5.01938 11.2223 4.90649C10.6894 4.08713 9.5325 3.56228 8.71291 3.26739C8.5133 3.19557 8.28073 3.5227 8.36226 3.71855C8.61708 4.33062 8.67748 5.10769 8.46181 5.7696C7.56927 6.46824 7 7.52778 7 8.71393Z" fill="#088395"/>
</svg>
