<svg width="227" height="22" viewBox="0 0 227 22" fill="none" xmlns="http://www.w3.org/2000/svg">
<path d="M5.049 16.18C4.323 16.18 3.702 16.006 3.186 15.658C2.676 15.304 2.259 14.818 1.935 14.2C1.617 13.576 1.383 12.853 1.233 12.031C1.089 11.209 1.017 10.33 1.017 9.394C1.017 8.458 1.089 7.579 1.233 6.757C1.383 5.929 1.617 5.203 1.935 4.579C2.259 3.949 2.676 3.457 3.186 3.103C3.702 2.743 4.323 2.563 5.049 2.563C5.775 2.563 6.393 2.743 6.903 3.103C7.419 3.457 7.836 3.949 8.154 4.579C8.472 5.203 8.706 5.929 8.856 6.757C9.006 7.579 9.081 8.458 9.081 9.394C9.081 10.33 9.006 11.209 8.856 12.031C8.706 12.853 8.472 13.576 8.154 14.2C7.836 14.818 7.419 15.304 6.903 15.658C6.393 16.006 5.775 16.18 5.049 16.18ZM5.049 14.83C5.613 14.83 6.075 14.623 6.435 14.209C6.801 13.795 7.074 13.183 7.254 12.373C7.434 11.563 7.524 10.57 7.524 9.394C7.524 8.212 7.434 7.216 7.254 6.406C7.074 5.596 6.801 4.984 6.435 4.57C6.075 4.15 5.613 3.94 5.049 3.94C4.491 3.94 4.026 4.15 3.654 4.57C3.288 4.984 3.015 5.596 2.835 6.406C2.655 7.216 2.565 8.212 2.565 9.394C2.565 10.576 2.655 11.572 2.835 12.382C3.015 13.186 3.288 13.795 3.654 14.209C4.026 14.623 4.491 14.83 5.049 14.83ZM15.4235 2.68V16H13.8935V4.345C13.8455 4.411 13.6955 4.498 13.4435 4.606C13.1975 4.714 12.8915 4.819 12.5255 4.921C12.1655 5.017 11.7815 5.086 11.3735 5.128V3.742C11.7755 3.676 12.1535 3.583 12.5075 3.463C12.8675 3.343 13.1735 3.214 13.4255 3.076C13.6775 2.932 13.8455 2.8 13.9295 2.68H15.4235Z" fill="#088395"/>
<rect x="34" y="8.5" width="193" height="5" fill="#088395"/>
</svg>
